<svg xmlns="http://www.w3.org/2000/svg" xmlns:xlink="http://www.w3.org/1999/xlink" viewBox="0 0 58.2 87.76"><defs><style>.cls-1,.cls-6{fill:none;}.cls-2{clip-path:url(#clip-path);}.cls-3{clip-path:url(#clip-path-2);}.cls-4{fill:#0c03bd;}.cls-5{fill:#0c03be;}.cls-6{stroke:#0c03be;stroke-miterlimit:10;stroke-width:0.67px;}</style><clipPath id="clip-path" transform="translate(-3.08 -2.29)"><rect class="cls-1" width="64.6" height="92.33"/></clipPath><clipPath id="clip-path-2" transform="translate(-3.08 -2.29)"><rect class="cls-1" x="-16.27" width="100" height="93"/></clipPath></defs><g id="Layer_2" data-name="Layer 2"><g id="Layer_1-2" data-name="Layer 1"><g class="cls-2"><g class="cls-3"><path class="cls-4" d="M51.21,38.39a1.62,1.62,0,0,0-1.94,1.12,19.83,19.83,0,1,1-3-17.46,1.63,1.63,0,0,0,2.64-1.9,23.16,23.16,0,1,0,3.61,20.29,1.63,1.63,0,0,0-1.18-2Z" transform="translate(-3.08 -2.29)"/><path class="cls-4" d="M38.08,45.6a1.41,1.41,0,0,0-1.87-.45,12.48,12.48,0,0,1-4.64,1.41A12.67,12.67,0,0,1,17.73,32.19,12.52,12.52,0,0,1,29.21,21.34a12.85,12.85,0,0,1,3.52.19,1.47,1.47,0,0,0,1.71-1l0-.1a1.58,1.58,0,0,0-1.23-2,15.31,15.31,0,0,0-4.45-.21,15.67,15.67,0,0,0,2.76,31.21,15.29,15.29,0,0,0,6.06-1.79,1.4,1.4,0,0,0,.48-2Z" transform="translate(-3.08 -2.29)"/><path class="cls-4" d="M55.9,31.14v0A1.42,1.42,0,0,0,54.34,30a12.4,12.4,0,0,1-4.82-.48,12.63,12.63,0,0,1-5.74-3.65,15.82,15.82,0,0,0-5.14-5.31,1.59,1.59,0,0,0-2.28.64A1.62,1.62,0,0,0,37,23.23a12.64,12.64,0,0,1,5.88,12.11A12.46,12.46,0,0,1,40,42.05a1.42,1.42,0,0,0,.16,2l0,0a1.41,1.41,0,0,0,2-.15,15.59,15.59,0,0,0,3.5-13,16.25,16.25,0,0,0,2.72,1.2,15.36,15.36,0,0,0,6.28.68,1.4,1.4,0,0,0,1.22-1.66" transform="translate(-3.08 -2.29)"/><path class="cls-5" d="M32,2.34A31,31,0,0,0,3.24,18.13h0a1.22,1.22,0,0,0,.54,1.68l.78.39a1.24,1.24,0,0,0,1.63-.49A27.66,27.66,0,1,1,6.85,48a1.22,1.22,0,0,0-1.64-.41L4.47,48A1.24,1.24,0,0,0,4,49.77,31,31,0,1,0,32,2.34" transform="translate(-3.08 -2.29)"/><path class="cls-5" d="M16.76,85.14a5.93,5.93,0,0,1-6.17,4.58c-4.68,0-7.1-3.64-7.1-8.16,0-4.33,2.39-8.26,7.15-8.26,3.6,0,5.64,2,6.14,4.7H15.14a4.37,4.37,0,0,0-4.58-3.28c-3.77,0-5.34,3.45-5.34,6.8s1.52,6.78,5.43,6.78a4.45,4.45,0,0,0,4.48-3.16ZM23.49,75H18.21V73.53H30.45V75h-5.3V89.53H23.49Zm21.2,10.17a6,6,0,0,1-6.18,4.58c-4.68,0-7.1-3.64-7.1-8.16,0-4.33,2.4-8.26,7.15-8.26,3.6,0,5.64,2,6.14,4.7H43.07a4.37,4.37,0,0,0-4.58-3.28c-3.78,0-5.35,3.45-5.35,6.8s1.52,6.78,5.44,6.78a4.44,4.44,0,0,0,4.47-3.16Zm15.72,0a5.93,5.93,0,0,1-6.17,4.58c-4.68,0-7.1-3.64-7.1-8.16,0-4.33,2.39-8.26,7.15-8.26,3.6,0,5.64,2,6.14,4.7H58.79a4.37,4.37,0,0,0-4.58-3.28c-3.77,0-5.34,3.45-5.34,6.8s1.52,6.78,5.43,6.78a4.45,4.45,0,0,0,4.48-3.16Z" transform="translate(-3.08 -2.29)"/><path class="cls-6" d="M15.12,85.14h0a4.43,4.43,0,0,1-4.47,3.16c-3.91,0-5.43-3.48-5.43-6.78s1.57-6.8,5.34-6.8A4.37,4.37,0,0,1,15.14,78h1.64c-.5-2.68-2.54-4.7-6.14-4.7-4.76,0-7.15,3.93-7.15,8.26,0,4.52,2.42,8.16,7.1,8.16a5.94,5.94,0,0,0,6.17-4.58Z" transform="translate(-3.08 -2.29)"/><polygon class="cls-6" points="20.41 87.24 22.07 87.24 22.07 72.68 27.36 72.68 27.36 71.23 15.13 71.23 15.13 72.68 20.41 72.68 20.41 87.24"/><path class="cls-6" d="M43.05,85.14h0a4.44,4.44,0,0,1-4.47,3.16c-3.92,0-5.44-3.48-5.44-6.78s1.57-6.8,5.34-6.8A4.38,4.38,0,0,1,43.07,78H44.7c-.5-2.68-2.54-4.7-6.14-4.7-4.75,0-7.15,3.93-7.15,8.26,0,4.52,2.42,8.16,7.1,8.16a5.93,5.93,0,0,0,6.17-4.58Z" transform="translate(-3.08 -2.29)"/><path class="cls-6" d="M58.77,85.14h0A4.43,4.43,0,0,1,54.3,88.3c-3.91,0-5.43-3.48-5.43-6.78s1.56-6.8,5.34-6.8A4.37,4.37,0,0,1,58.79,78h1.64c-.51-2.68-2.55-4.7-6.14-4.7-4.76,0-7.15,3.93-7.15,8.26,0,4.52,2.42,8.16,7.1,8.16a5.94,5.94,0,0,0,6.17-4.58Z" transform="translate(-3.08 -2.29)"/></g></g></g></g></svg>